<svg width="1536" height="56" viewBox="0 0 1536 56" fill="none" xmlns="http://www.w3.org/2000/svg">
<g clip-path="url(#clip0)">
<rect width="1536" height="56" fill="white"/>
<path d="M1536 -146H0V163.852H1536V-146Z" fill="#001220"/>
<path d="M0 -127.637L64 -126.833C128 -126.145 256 -124.538 384 -92.8644C512 -61.0758 640 -18.6146 768 -4.04002C898.027 10.7653 1024 -1.74485 1152 -28.5987C1280 -55.3378 1408 -89.7659 1472 -106.98L1536 -124.194V165.002H1472C1408 165.002 1280 165.002 1152 165.002C1024 165.002 896 165.002 768 165.002C640 165.002 512 165.002 384 165.002C256 165.002 128 165.002 64 165.002H0V-127.637Z" fill="url(#paint0_linear)"/>
<path d="M0 -87.4727L64 -60.2745C128 -33.1911 256 21.2052 384 37.0421C512 52.879 640 30.386 768 6.63067C896 -17.1247 1024 -41.9129 1152 -54.1922C1280 -66.4715 1408 -66.0125 1472 -65.8978L1536 -65.6682V165H1472C1408 165 1280 165 1152 165C1024 165 896 165 768 165C640 165 512 165 384 165C256 165 128 165 64 165H0V-87.4727Z" fill="url(#paint1_linear)"/>
<path d="M0 51.384L64 55.7448C128 60.2205 256 68.9423 384 59.991C512 51.0397 640 24.1858 768 32.219C896 40.2522 1024 83.1725 1152 93.2714C1280 103.37 1408 80.8773 1472 69.516L1536 58.2696V164.997H1472C1408 164.997 1280 164.997 1152 164.997C1024 164.997 896 164.997 768 164.997C640 164.997 512 164.997 384 164.997C256 164.997 128 164.997 64 164.997H0V51.384Z" fill="url(#paint2_linear)"/>
</g>
<defs>
<linearGradient id="paint0_linear" x1="0" y1="-154.032" x2="1536" y2="-154.032" gradientUnits="userSpaceOnUse">
<stop offset="0.15" stop-color="#DA3F67"/>
<stop offset="0.95" stop-color="#C62368"/>
</linearGradient>
<linearGradient id="paint1_linear" x1="0" y1="-87.4727" x2="1536" y2="-87.4727" gradientUnits="userSpaceOnUse">
<stop offset="0.05" stop-color="#DA3F67"/>
<stop offset="0.85" stop-color="#EB5967"/>
</linearGradient>
<linearGradient id="paint2_linear" x1="0" y1="30.7383" x2="1536" y2="30.7383" gradientUnits="userSpaceOnUse">
<stop offset="0.15" stop-color="#FA7268"/>
<stop offset="0.95" stop-color="#EB5967"/>
</linearGradient>
<clipPath id="clip0">
<rect width="1536" height="56" fill="white"/>
</clipPath>
</defs>
</svg>
