<svg width="512" height="512" viewBox="0 0 512 512" fill="none" xmlns="http://www.w3.org/2000/svg">
<path d="M310.802 319.384L261.581 306.889L249.086 353.025L261.581 307.151C301.808 387.5 361.507 427.674 440.675 427.674" stroke="#92CBDC" stroke-width="100.072" stroke-linecap="round" stroke-linejoin="round"/>
<path d="M310.802 319.384L261.581 306.889L249.086 353.025L261.581 307.151C301.808 387.5 361.507 427.674 440.675 427.674" stroke="#004F74" stroke-width="25.0181" stroke-linecap="round" stroke-linejoin="round"/>
<path d="M236.579 465.159C356.193 465.159 453.159 368.193 453.159 248.579C453.159 128.966 356.193 32 236.579 32C116.966 32 20 128.966 20 248.579C20 368.193 116.966 465.159 236.579 465.159Z" fill="#92CBDC"/>
<path d="M236.575 411.014C326.285 411.014 399.01 338.29 399.01 248.579C399.01 158.869 326.285 86.1449 236.575 86.1449C146.865 86.1449 74.1406 158.869 74.1406 248.579C74.1406 338.29 146.865 411.014 236.575 411.014Z" fill="url(#paint0_linear)" stroke="#004F74" stroke-width="25.0181"/>
<path fill-rule="evenodd" clip-rule="evenodd" d="M162.555 111.85C160.075 111.85 157.643 112.531 155.524 113.819C131.777 128.254 113.785 145.472 101.471 165.401C87.5821 187.878 80.6199 214.261 80.6999 244.585C80.7108 248.67 82.5662 252.532 85.7487 255.094L140.805 299.408C142.523 300.792 143.523 302.88 143.523 305.086V334.917C143.523 336.224 143.668 337.527 143.955 338.803L151.976 374.457C153.256 380.147 157.257 384.842 162.673 387.008L186.899 396.696C190.836 398.27 195.056 398.338 198.864 397.12C202.672 395.902 206.069 393.398 208.362 389.831L238.971 342.207C240.806 339.352 241.782 336.03 241.782 332.636V320.516C241.782 315.628 239.8 311.203 236.597 308C233.394 304.796 228.969 302.815 224.081 302.815H216.676C214.743 302.815 212.889 302.047 211.522 300.68L194.161 283.319C190.841 280 186.339 278.135 181.644 278.135H153.905C151.972 278.135 150.118 277.367 148.751 276L131.888 259.137C130.521 257.77 129.753 255.916 129.753 253.983V249.704C129.753 248.531 130.229 247.469 130.998 246.7C131.767 245.931 132.829 245.456 134.002 245.456H136.921C138.29 245.456 139.6 245.839 140.725 246.527C141.849 247.214 142.787 248.207 143.41 249.425L146.897 256.24C148.015 258.426 149.913 259.952 152.079 260.652C153.827 261.217 155.821 264.683 163.705 253.933V228.904C163.705 226.892 164.521 225.07 165.84 223.751C167.159 222.432 168.981 221.616 170.994 221.616H199.005C203.893 221.616 208.319 219.634 211.522 216.431C214.725 213.228 216.707 208.803 216.707 203.914V156.95C216.707 152.061 214.725 147.636 211.522 144.433C208.319 141.23 203.893 139.248 199.005 139.248H183.38C181.367 139.248 179.545 138.433 178.226 137.114C176.907 135.795 176.091 133.972 176.091 131.96V125.386C176.091 121.648 174.576 118.264 172.127 115.814C169.677 113.365 166.293 111.85 162.555 111.85Z" fill="#BAE393" stroke="#004F74" stroke-width="10.4242"/>
<path fill-rule="evenodd" clip-rule="evenodd" d="M163.365 216.41H199.007C205.908 216.41 211.502 210.816 211.502 203.915V156.95C211.502 150.049 205.908 144.455 199.007 144.455H183.382C176.481 144.455 170.887 138.861 170.887 131.96V124.499C170.887 119.899 167.157 116.169 162.557 116.169C161.206 116.169 159.875 116.498 158.679 117.127C149.208 122.109 141.494 127.059 135.538 131.978C128.757 137.578 120.957 146.595 112.139 159.029C108.497 164.164 109.245 171.206 113.883 175.463L154.916 213.121C157.222 215.236 160.236 216.41 163.365 216.41Z" fill="#93C366"/>
<path fill-rule="evenodd" clip-rule="evenodd" d="M317.017 138.33L287.317 174.047C284.973 176.865 283.619 180.261 283.3 183.751C282.98 187.241 283.695 190.825 285.488 194.023L286.626 196.053C287.506 197.621 287.73 199.395 287.372 201.041C287.013 202.688 286.072 204.207 284.62 205.268L279.389 209.09C275.646 211.824 273.276 215.77 272.453 220.016C271.666 224.075 272.146 228.471 275.597 234.011C277.951 237.792 281.535 240.391 285.537 241.57C289.538 242.749 293.959 242.508 297.987 240.608L301.036 239.17C304.051 237.748 306.52 235.521 308.235 232.815C309.951 230.109 310.912 226.926 310.912 223.593C310.912 222.628 311.254 221.73 311.834 221.028C312.413 220.326 313.229 219.819 314.176 219.635L337.081 215.196C339.057 214.813 341.001 215.267 342.547 216.311C344.093 217.355 345.24 218.988 345.757 222.351V238.544C345.757 240.341 345.102 242.004 344.003 243.286C342.905 244.569 341.362 245.471 339.587 245.747L278.702 255.207C274.39 255.877 270.645 258.068 267.977 261.183C265.309 264.297 263.719 268.335 263.719 272.698V299.535C263.719 302.896 264.67 306.112 266.375 308.861C268.079 311.61 270.535 313.893 273.545 315.388L299.896 328.478C301.223 329.137 302.318 330.185 303.034 331.483L316.799 356.414C319.161 360.693 323.035 363.61 327.387 364.866C331.74 366.122 336.571 365.717 340.851 363.355C342.344 362.53 343.71 361.494 344.907 360.279C375.118 329.602 390.239 292.373 390.239 248.579C390.239 203.666 374.344 166.42 342.621 136.809C338.986 133.416 334.307 131.843 329.618 132.139C325.124 132.423 320.586 134.429 317.017 138.33Z" fill="#BAE393" stroke="#004F74" stroke-width="10.4242"/>
<path fill-rule="evenodd" clip-rule="evenodd" d="M322.319 140.088L291.313 177.376C288.004 181.355 287.491 186.962 290.022 191.476L291.161 193.506C294.209 198.941 292.716 205.796 287.685 209.472L282.453 213.294C277.17 217.154 275.759 224.435 279.218 229.989L280.009 231.259C283.322 236.578 290.092 238.573 295.759 235.9L298.809 234.462C303.015 232.478 305.699 228.244 305.699 223.593C305.699 219.169 308.836 215.366 313.179 214.525L345.388 208.281C348.926 207.596 351.996 205.415 353.809 202.3L365.59 182.057C367.302 179.115 367.74 175.601 366.802 172.329C364.882 165.631 361.179 159.044 355.693 152.567C350.94 146.955 345.328 141.993 338.857 137.68C333.539 134.136 326.405 135.175 322.319 140.088Z" fill="#93C366"/>
<path d="M236.583 411.014C326.293 411.014 399.018 338.29 399.018 248.58C399.018 158.869 326.293 86.145 236.583 86.145C146.873 86.145 74.1484 158.869 74.1484 248.58C74.1484 338.29 146.873 411.014 236.583 411.014Z" stroke="#004F74" stroke-width="41.6969"/>
<path d="M236.581 419.344C330.892 419.344 407.345 342.89 407.345 248.58C407.345 154.269 330.892 77.815 236.581 77.815C142.27 77.815 65.8164 154.269 65.8164 248.58C65.8164 342.89 142.27 419.344 236.581 419.344Z" stroke="#004F74" stroke-width="25.0181"/>
<path d="M310.802 319.384L261.581 306.889L249.086 353.025L261.581 307.151C301.808 387.5 361.507 427.674 440.675 427.674" stroke="white" stroke-width="50.0362" stroke-linecap="round" stroke-linejoin="round"/>
<path d="M310.802 319.384L261.581 306.889L249.086 353.025L261.581 307.151C301.808 387.5 361.507 427.674 440.675 427.674" stroke="#004F74" stroke-width="25.0181" stroke-linecap="round" stroke-linejoin="round"/>
<path d="M236.58 273.569C250.381 273.569 261.57 262.381 261.57 248.579C261.57 234.778 250.381 223.589 236.58 223.589C222.778 223.589 211.59 234.778 211.59 248.579C211.59 262.381 222.778 273.569 236.58 273.569Z" fill="#FF585D" stroke="white" stroke-width="12.5091"/>
<defs>
<linearGradient id="paint0_linear" x1="236.575" y1="86.1449" x2="236.575" y2="411.014" gradientUnits="userSpaceOnUse">
<stop stop-color="#23AECA"/>
<stop offset="1" stop-color="#006088"/>
</linearGradient>
</defs>
</svg>
